<?xml version='1.0' encoding='utf-8'?>
<svg xmlns="http://www.w3.org/2000/svg" width="1680" height="596" viewBox="0 0 1680 596" fill="none">
<title>Distance Connect</title><desc>Official logo of Distance Connect, a career guidance and mentorship platform for engineering students in India.</desc><path d="M442.8 332V193.4H475.8V332H442.8ZM459.3 171.4C453.25 171.4 448.208 169.567 444.175 165.9C440.325 162.05 438.4 157.375 438.4 151.875C438.4 146.192 440.325 141.608 444.175 138.125C448.208 134.458 453.25 132.625 459.3 132.625C465.35 132.625 470.3 134.458 474.15 138.125C478.183 141.608 480.2 146.192 480.2 151.875C480.2 157.375 478.183 162.05 474.15 165.9C470.3 169.567 465.35 171.4 459.3 171.4ZM569.21 335.3C556.926 335.3 546.201 333.375 537.035 329.525C528.051 325.492 520.901 319.992 515.585 313.025C510.451 305.875 507.426 297.717 506.51 288.55H539.51C540.426 292.4 542.076 295.975 544.46 299.275C546.843 302.392 550.051 304.867 554.085 306.7C558.301 308.533 563.251 309.45 568.935 309.45C574.435 309.45 578.926 308.717 582.41 307.25C585.893 305.6 588.46 303.492 590.11 300.925C591.76 298.358 592.585 295.608 592.585 292.675C592.585 288.275 591.393 284.883 589.01 282.5C586.626 280.117 583.143 278.283 578.56 277C574.16 275.533 568.843 274.158 562.61 272.875C556.01 271.592 549.593 270.033 543.36 268.2C537.31 266.183 531.81 263.708 526.86 260.775C522.093 257.842 518.243 254.083 515.31 249.5C512.56 244.917 511.185 239.325 511.185 232.725C511.185 224.658 513.293 217.417 517.51 211C521.91 204.583 528.143 199.542 536.21 195.875C544.46 192.025 554.268 190.1 565.635 190.1C581.768 190.1 594.601 193.858 604.135 201.375C613.851 208.708 619.535 219.067 621.185 232.45H589.835C588.918 227.317 586.351 223.375 582.135 220.625C577.918 217.692 572.326 216.225 565.36 216.225C558.21 216.225 552.71 217.6 548.86 220.35C545.193 222.917 543.36 226.4 543.36 230.8C543.36 233.55 544.46 236.117 546.66 238.5C549.043 240.7 552.435 242.625 556.835 244.275C561.235 245.742 566.643 247.208 573.06 248.675C583.326 250.692 592.401 253.075 600.285 255.825C608.168 258.575 614.401 262.608 618.985 267.925C623.568 273.242 625.86 280.758 625.86 290.475C626.043 299.275 623.751 307.067 618.985 313.85C614.401 320.633 607.893 325.95 599.46 329.8C591.026 333.467 580.943 335.3 569.21 335.3ZM713.271 332C703.921 332 695.763 330.533 688.796 327.6C682.013 324.667 676.696 319.808 672.846 313.025C668.996 306.242 667.071 297.075 667.071 285.525V221.175H643.421V193.4H667.071L670.921 156.825H700.071V193.4H737.746V221.175H700.071V285.525C700.071 292.492 701.538 297.35 704.471 300.1C707.588 302.667 712.721 303.95 719.871 303.95H736.921V332H713.271ZM814.993 335.3C803.627 335.3 794.185 333.375 786.668 329.525C779.151 325.675 773.56 320.542 769.893 314.125C766.226 307.708 764.393 300.742 764.393 293.225C764.393 284.425 766.593 276.817 770.993 270.4C775.576 263.983 782.268 259.033 791.068 255.55C799.868 251.883 810.685 250.05 823.518 250.05H858.443C858.443 242.717 857.435 236.667 855.418 231.9C853.402 226.95 850.285 223.283 846.068 220.9C841.852 218.517 836.443 217.325 829.843 217.325C822.326 217.325 815.91 219.067 810.593 222.55C805.277 225.85 801.977 230.983 800.693 237.95H768.243C769.343 228.05 772.643 219.617 778.143 212.65C783.643 205.5 790.885 200 799.868 196.15C809.035 192.117 819.026 190.1 829.843 190.1C842.86 190.1 853.952 192.392 863.118 196.975C872.285 201.375 879.252 207.792 884.018 216.225C888.968 224.475 891.443 234.467 891.443 246.2V332H863.393L860.093 309.725C858.26 313.392 855.877 316.783 852.943 319.9C850.193 323.017 846.985 325.767 843.318 328.15C839.652 330.35 835.435 332.092 830.668 333.375C826.085 334.658 820.86 335.3 814.993 335.3ZM822.418 309.175C827.735 309.175 832.41 308.258 836.443 306.425C840.66 304.408 844.235 301.658 847.168 298.175C850.285 294.508 852.668 290.475 854.318 286.075C855.968 281.675 857.068 277 857.618 272.05V271.5H827.093C820.677 271.5 815.36 272.325 811.143 273.975C806.927 275.442 803.902 277.642 802.068 280.575C800.235 283.508 799.318 286.9 799.318 290.75C799.318 294.6 800.235 297.9 802.068 300.65C803.902 303.4 806.56 305.508 810.043 306.975C813.527 308.442 817.652 309.175 822.418 309.175ZM926.703 332V193.4H955.853L958.328 216.5C962.545 208.433 968.595 202.017 976.478 197.25C984.362 192.483 993.712 190.1 1004.53 190.1C1015.71 190.1 1025.24 192.483 1033.13 197.25C1041.01 201.833 1047.06 208.617 1051.28 217.6C1055.68 226.583 1057.88 237.767 1057.88 251.15V332H1024.88V254.175C1024.88 242.625 1022.31 233.733 1017.18 227.5C1012.04 221.267 1004.44 218.15 994.353 218.15C987.753 218.15 981.795 219.708 976.478 222.825C971.345 225.942 967.22 230.525 964.103 236.575C961.17 242.442 959.703 249.592 959.703 258.025V332H926.703ZM1158.4 335.3C1144.83 335.3 1132.64 332.275 1121.82 326.225C1111.19 319.992 1102.85 311.467 1096.8 300.65C1090.93 289.65 1088 277.183 1088 263.25C1088 248.767 1090.93 236.117 1096.8 225.3C1102.85 214.3 1111.19 205.683 1121.82 199.45C1132.64 193.217 1144.92 190.1 1158.67 190.1C1175.9 190.1 1190.39 194.683 1202.12 203.85C1213.85 212.833 1221.37 225.208 1224.67 240.975H1190.02C1188.19 234.008 1184.34 228.508 1178.47 224.475C1172.79 220.442 1166 218.425 1158.12 218.425C1151.34 218.425 1145.1 220.167 1139.42 223.65C1133.92 227.133 1129.52 232.175 1126.22 238.775C1123.1 245.375 1121.55 253.35 1121.55 262.7C1121.55 269.85 1122.46 276.175 1124.3 281.675C1126.13 287.175 1128.7 291.85 1132 295.7C1135.48 299.367 1139.42 302.208 1143.82 304.225C1148.22 306.242 1152.99 307.25 1158.12 307.25C1163.44 307.25 1168.2 306.425 1172.42 304.775C1176.82 302.942 1180.49 300.283 1183.42 296.8C1186.54 293.317 1188.74 289.192 1190.02 284.425H1224.67C1221.37 299.825 1213.85 312.2 1202.12 321.55C1190.39 330.717 1175.81 335.3 1158.4 335.3ZM1321.39 335.3C1307.64 335.3 1295.54 332.367 1285.09 326.5C1274.64 320.45 1266.48 312.017 1260.61 301.2C1254.75 290.383 1251.81 277.917 1251.81 263.8C1251.81 249.133 1254.66 236.3 1260.34 225.3C1266.21 214.3 1274.36 205.683 1284.81 199.45C1295.45 193.217 1307.73 190.1 1321.66 190.1C1335.23 190.1 1347.06 193.125 1357.14 199.175C1367.22 205.225 1375.01 213.383 1380.51 223.65C1386.01 233.733 1388.76 245.1 1388.76 257.75C1388.76 259.583 1388.76 261.6 1388.76 263.8C1388.76 266 1388.58 268.292 1388.21 270.675H1275.46V249.5H1355.49C1355.12 239.417 1351.73 231.533 1345.31 225.85C1338.9 219.983 1330.92 217.05 1321.39 217.05C1314.61 217.05 1308.37 218.608 1302.69 221.725C1297.01 224.842 1292.51 229.517 1289.21 235.75C1285.91 241.8 1284.26 249.5 1284.26 258.85V266.825C1284.26 275.442 1285.82 282.867 1288.94 289.1C1292.24 295.333 1296.64 300.1 1302.14 303.4C1307.82 306.517 1314.15 308.075 1321.11 308.075C1328.81 308.075 1335.14 306.425 1340.09 303.125C1345.22 299.825 1348.98 295.425 1351.36 289.925H1384.91C1382.35 298.542 1378.13 306.333 1372.26 313.3C1366.4 320.083 1359.16 325.492 1350.54 329.525C1341.92 333.375 1332.21 335.3 1321.39 335.3Z" fill="#3D568F" />
<path d="M528.05 549.3C508.983 549.3 492.483 545.175 478.55 536.925C464.8 528.492 454.167 516.85 446.65 502C439.317 486.967 435.65 469.642 435.65 450.025C435.65 430.225 439.317 412.9 446.65 398.05C454.167 383.017 464.8 371.283 478.55 362.85C492.483 354.417 508.983 350.2 528.05 350.2C550.967 350.2 569.667 355.883 584.15 367.25C598.633 378.433 607.8 394.292 611.65 414.825H575.35C572.783 404.008 567.558 395.483 559.675 389.25C551.792 383.017 541.158 379.9 527.775 379.9C515.675 379.9 505.225 382.742 496.425 388.425C487.808 393.925 481.117 401.992 476.35 412.625C471.767 423.075 469.475 435.542 469.475 450.025C469.475 464.508 471.767 476.975 476.35 487.425C481.117 497.692 487.808 505.667 496.425 511.35C505.225 516.85 515.675 519.6 527.775 519.6C541.158 519.6 551.792 516.758 559.675 511.075C567.558 505.208 572.783 497.142 575.35 486.875H611.65C607.983 506.308 598.817 521.617 584.15 532.8C569.667 543.8 550.967 549.3 528.05 549.3ZM707.466 549.3C694.266 549.3 682.349 546.275 671.716 540.225C661.266 533.992 653.016 525.467 646.966 514.65C641.099 503.65 638.166 491.092 638.166 476.975C638.166 462.492 641.191 449.842 647.241 439.025C653.291 428.025 661.541 419.5 671.991 413.45C682.624 407.217 694.541 404.1 707.741 404.1C720.941 404.1 732.766 407.217 743.216 413.45C753.849 419.5 762.099 427.933 767.966 438.75C774.016 449.567 777.041 462.217 777.041 476.7C777.041 491.183 774.016 503.833 767.966 514.65C761.916 525.467 753.574 533.992 742.941 540.225C732.491 546.275 720.666 549.3 707.466 549.3ZM707.466 520.975C714.066 520.975 720.024 519.325 725.341 516.025C730.841 512.725 735.241 507.775 738.541 501.175C741.841 494.575 743.491 486.417 743.491 476.7C743.491 466.983 741.841 458.917 738.541 452.5C735.424 445.9 731.116 440.95 725.616 437.65C720.299 434.35 714.341 432.7 707.741 432.7C701.324 432.7 695.366 434.35 689.866 437.65C684.366 440.95 679.966 445.9 676.666 452.5C673.366 458.917 671.716 466.983 671.716 476.7C671.716 486.417 673.366 494.575 676.666 501.175C679.966 507.775 684.274 512.725 689.591 516.025C695.091 519.325 701.049 520.975 707.466 520.975ZM809.345 546V407.4H838.495L840.97 430.5C845.187 422.433 851.237 416.017 859.12 411.25C867.003 406.483 876.353 404.1 887.17 404.1C898.353 404.1 907.887 406.483 915.77 411.25C923.653 415.833 929.703 422.617 933.92 431.6C938.32 440.583 940.52 451.767 940.52 465.15V546H907.52V468.175C907.52 456.625 904.953 447.733 899.82 441.5C894.687 435.267 887.078 432.15 876.995 432.15C870.395 432.15 864.437 433.708 859.12 436.825C853.987 439.942 849.862 444.525 846.745 450.575C843.812 456.442 842.345 463.592 842.345 472.025V546H809.345ZM975.312 546V407.4H1004.46L1006.94 430.5C1011.15 422.433 1017.2 416.017 1025.09 411.25C1032.97 406.483 1042.32 404.1 1053.14 404.1C1064.32 404.1 1073.85 406.483 1081.74 411.25C1089.62 415.833 1095.67 422.617 1099.89 431.6C1104.29 440.583 1106.49 451.767 1106.49 465.15V546H1073.49V468.175C1073.49 456.625 1070.92 447.733 1065.79 441.5C1060.65 435.267 1053.05 432.15 1042.96 432.15C1036.36 432.15 1030.4 433.708 1025.09 436.825C1019.95 439.942 1015.83 444.525 1012.71 450.575C1009.78 456.442 1008.31 463.592 1008.31 472.025V546H975.312ZM1206.18 549.3C1192.43 549.3 1180.33 546.367 1169.88 540.5C1159.43 534.45 1151.27 526.017 1145.4 515.2C1139.54 504.383 1136.6 491.917 1136.6 477.8C1136.6 463.133 1139.45 450.3 1145.13 439.3C1151 428.3 1159.15 419.683 1169.6 413.45C1180.24 407.217 1192.52 404.1 1206.45 404.1C1220.02 404.1 1231.85 407.125 1241.93 413.175C1252.01 419.225 1259.8 427.383 1265.3 437.65C1270.8 447.733 1273.55 459.1 1273.55 471.75C1273.55 473.583 1273.55 475.6 1273.55 477.8C1273.55 480 1273.37 482.292 1273 484.675H1160.25V463.5H1240.28C1239.91 453.417 1236.52 445.533 1230.1 439.85C1223.69 433.983 1215.71 431.05 1206.18 431.05C1199.4 431.05 1193.16 432.608 1187.48 435.725C1181.8 438.842 1177.3 443.517 1174 449.75C1170.7 455.8 1169.05 463.5 1169.05 472.85V480.825C1169.05 489.442 1170.61 496.867 1173.73 503.1C1177.03 509.333 1181.43 514.1 1186.93 517.4C1192.61 520.517 1198.94 522.075 1205.9 522.075C1213.6 522.075 1219.93 520.425 1224.88 517.125C1230.01 513.825 1233.77 509.425 1236.15 503.925H1269.7C1267.14 512.542 1262.92 520.333 1257.05 527.3C1251.19 534.083 1243.95 539.492 1235.33 543.525C1226.71 547.375 1217 549.3 1206.18 549.3ZM1369.75 549.3C1356.18 549.3 1343.99 546.275 1333.17 540.225C1322.54 533.992 1314.2 525.467 1308.15 514.65C1302.28 503.65 1299.35 491.183 1299.35 477.25C1299.35 462.767 1302.28 450.117 1308.15 439.3C1314.2 428.3 1322.54 419.683 1333.17 413.45C1343.99 407.217 1356.27 404.1 1370.02 404.1C1387.26 404.1 1401.74 408.683 1413.47 417.85C1425.21 426.833 1432.72 439.208 1436.02 454.975H1401.37C1399.54 448.008 1395.69 442.508 1389.82 438.475C1384.14 434.442 1377.36 432.425 1369.47 432.425C1362.69 432.425 1356.46 434.167 1350.77 437.65C1345.27 441.133 1340.87 446.175 1337.57 452.775C1334.46 459.375 1332.9 467.35 1332.9 476.7C1332.9 483.85 1333.81 490.175 1335.65 495.675C1337.48 501.175 1340.05 505.85 1343.35 509.7C1346.83 513.367 1350.77 516.208 1355.17 518.225C1359.57 520.242 1364.34 521.25 1369.47 521.25C1374.79 521.25 1379.56 520.425 1383.77 518.775C1388.17 516.942 1391.84 514.283 1394.77 510.8C1397.89 507.317 1400.09 503.192 1401.37 498.425H1436.02C1432.72 513.825 1425.21 526.2 1413.47 535.55C1401.74 544.717 1387.16 549.3 1369.75 549.3ZM1525.92 546C1516.57 546 1508.41 544.533 1501.44 541.6C1494.66 538.667 1489.34 533.808 1485.49 527.025C1481.64 520.242 1479.72 511.075 1479.72 499.525V435.175H1456.07V407.4H1479.72L1483.57 370.825H1512.72V407.4H1550.39V435.175H1512.72V499.525C1512.72 506.492 1514.18 511.35 1517.12 514.1C1520.23 516.667 1525.37 517.95 1532.52 517.95H1549.57V546H1525.92Z" fill="#3D568F" />
<path d="M153.29 21V89.6826C153.29 101.281 154.98 110.683 166.578 110.683H187.755C271.113 106.672 274.32 165.222 274.32 198.908V348.891C282.516 485.976 216.946 476.369 144.473 473.662C132.945 473.231 123.563 463.902 123.476 452.367L121.386 174.835C121.299 163.299 111.922 153.993 100.386 153.993H22.1176C10.4738 153.993 1.05289 163.467 1.1179 175.11L3.05345 521.801C3.26705 560.06 27.9138 586.105 66.1704 585.653L67.3072 585.64C100.038 585.253 147.406 584.693 214.205 584.693C328.022 584.693 408.174 487.645 396.953 393.004C397.22 343.009 397.594 234.198 396.953 198.908C396.311 163.618 387.334 122.713 381.724 110.683C376.113 94.6417 352.228 58.8703 320.808 34.4881C289.388 10.1058 229.701 1.33675 203.785 0H174.29C162.692 0 153.29 9.40202 153.29 21Z" fill="#9FBAF1" />
<rect width="115" height="115" rx="45" fill="#3D568F" />
</svg>